PathFileType	4	(X/Y/Z)	Kaydara																																																																																																																									
DataRate	CameraRate	NumFrames	NumMarkers	Units	OrigDataRate	OrigDataStartFrame	OrigNumFrames																																																																																																																					
30	30	9	41	mm	30	119	158																																																																																																																					
Frame#	Time	NABA_LFHD			NABA_RFHD			NABA_LBHD			NABA_RBHD			NABA_LFTShould			NABA_RFTShould			NABA_LRRShould			NABA_RRRShould			NABA_T10			NABA_STRN			NABA_TRUN			NABA_LSHO			NABA_LUPA			NABA_LELB			NABA_LFRM			NABA_LWRA			NABA_LWRB			NABA_LFIN			NABA_RSHO			NABA_RUPA			NABA_RELB			NABA_RFRM			NABA_RWRA			NABA_RWRB			NABA_RFIN			NABA_LFWT			NABA_RFWT			NABA_LBWT			NABA_RBWT			NABA_LTHI			NABA_LKNE			NABA_LSHN			NABA_LANK			NABA_LHEE			NABA_LTOE			NABA_RTHI			NABA_RKNE			NABA_RSHN			NABA_RANK			NABA_RHEE			NABA_RTOE		
		X1	Y1	Z1	X2	Y2	Z2	X3	Y3	Z3	X4	Y4	Z4	X5	Y5	Z5	X6	Y6	Z6	X7	Y7	Z7	X8	Y8	Z8	X9	Y9	Z9	X10	Y10	Z10	X11	Y11	Z11	X12	Y12	Z12	X13	Y13	Z13	X14	Y14	Z14	X15	Y15	Z15	X16	Y16	Z16	X17	Y17	Z17	X18	Y18	Z18	X19	Y19	Z19	X20	Y20	Z20	X21	Y21	Z21	X22	Y22	Z22	X23	Y23	Z23	X24	Y24	Z24	X25	Y25	Z25	X26	Y26	Z26	X27	Y27	Z27	X28	Y28	Z28	X29	Y29	Z29	X30	Y30	Z30	X31	Y31	Z31	X32	Y32	Z32	X33	Y33	Z33	X34	Y34	Z34	X35	Y35	Z35	X36	Y36	Z36	X37	Y37	Z37	X38	Y38	Z38	X39	Y39	Z39	X40	Y40	Z40	X41	Y41	Z41
																																																																																																																												
119	3.943	282.11361	1507.77374	1262.6371	113.17651	1478.21304	1279.04076	297.43523	1511.48697	1137.1003	79.72343	1486.97098	1182.59949	267.9067	1268.49876	1195.96992	127.88489	1253.53073	1158.02528	292.9755	1332.66129	1088.80867	160.31664	1335.81818	1062.23808	261.49288	1169.97513	998.67134	196.07645	1206.64207	1219.77127	187.91849	1110.22522	1264.40636	364.71413	1321.353	1172.09618	475.46265	1103.5537	1169.61967	513.04401	1040.13557	1212.86438	514.20547	980.98961	1268.58803	461.09062	1002.6255	1434.70078	530.64625	999.40376	1433.66653	524.05659	1036.25801	1489.38095	67.06797	1316.02615	1095.73395	95.09036	1195.06134	934.29253	27.54318	1112.81586	861.71486	19.67821	1054.4577	795.21286	1.35152	900.11917	758.66226	-45.36086	939.24454	716.16196	-61.15288	892.28661	703.65395	348.18691	871.31699	1189.78882	79.32168	869.25186	1177.01584	308.62553	932.10419	1023.24539	132.04027	947.42393	1005.47585	346.42212	613.96946	980.81039	331.94778	454.88644	983.83995	266.86823	265.94349	945.21248	285.1268	139.16925	836.28624	225.48994	110.5016	767.49847	243.49577	50.38748	927.88658	85.99946	576.72314	1127.19193	97.43213	471.60725	1298.65112	106.81504	319.60632	1354.61349	104.8851	122.65635	1396.23917	153.42804	50.73006	1368.48282	119.64972	113.96785	1539.59946
120	3.977	279.73694	1477.78549	1329.47662	111.63376	1441.21841	1340.79285	294.0349	1505.61646	1207.1949	77.06338	1466.89545	1247.88315	263.97224	1270.39169	1233.48068	128.05003	1256.35773	1195.63019	287.43538	1337.14081	1128.56293	165.06409	1339.3988	1104.73732	259.10414	1171.77376	1038.28964	194.03297	1206.76926	1253.82347	182.30324	1114.14787	1301.90994	356.05175	1332.00531	1214.17816	460.73864	1110.50148	1214.81827	496.39946	1048.00751	1255.77087	503.06599	984.96689	1307.19482	467.5293	994.52148	1478.73779	537.46834	993.88321	1470.33951	534.61071	1029.73686	1526.8187	71.70315	1326.27625	1138.48747	94.57528	1210.10483	974.97917	26.34452	1127.2686	901.62216	19.615	1065.9137	836.11122	7.4919	910.0341	803.37921	-43.8059	946.92375	761.82167	-55.95881	895.79369	750.86861	346.21189	868.06862	1235.92888	76.84353	865.0573	1225.53139	299.36382	920.52521	1066.38824	126.6226	937.92404	1051.24718	346.64692	613.01403	1025.24033	334.46308	453.54507	1023.90869	270.92402	266.28387	969.28093	291.9421	149.30861	850.04776	234.48019	127.67725	777.46986	246.72667	51.32402	931.44829	87.09805	570.32364	1179.33372	98.85818	466.46061	1351.75812	111.03397	314.31288	1408.37921	111.38111	116.80762	1448.36899	160.55342	45.52096	1419.77676	126.79423	107.47437	1591.15097
121	4.01	278.44742	1450.88928	1395.41092	111.23655	1409.28345	1402.37396	289.78516	1501.26221	1280.20462	74.44533	1451.29303	1316.41464	255.02413	1285.9729	1274.20982	126.52967	1268.12218	1237.32765	276.03119	1348.68805	1171.07018	167.41375	1348.02216	1151.27625	255.31164	1181.47484	1080.40176	191.47707	1218.45314	1293.83316	177.44425	1130.30075	1345.72708	345.60604	1348.85971	1253.8588	444.19426	1124.32518	1257.00211	478.57971	1059.56238	1294.45526	485.96226	989.69879	1336.98318	469.97734	975.4557	1511.31546	537.75383	971.93527	1494.08417	546.2719	1003.41866	1550.23315	75.10873	1340.53391	1185.98366	87.86687	1230.54176	1019.37576	17.31957	1144.92271	947.20085	8.76454	1078.45932	883.75809	13.64524	921.32957	860.11673	-46.28799	947.11365	822.12181	-50.32327	892.18788	816.15013	341.52283	870.72624	1289.36569	71.50115	873.44688	1279.77829	292.69766	919.8291	1116.13235	124.99535	938.97324	1102.88879	343.26881	617.21199	1075.72304	335.19405	457.56577	1072.79175	275.56118	272.89734	1002.45361	299.26947	168.58929	871.64467	243.13004	155.39442	797.57133	251.53244	53.06172	939.47006	82.21354	573.41469	1233.20885	98.14392	465.95459	1397.62054	112.54694	304.96693	1446.96564	118.19686	105.46675	1470.73013	169.71811	41.15901	1437.82501	136.93105	82.74293	1612.10251
122	4.043	277.70462	1434.0152	1459.40018	111.42464	1389.26056	1463.22495	285.51306	1503.4169	1353.98468	72.37793	1444.23492	1386.12793	251.38027	1301.62003	1321.66306	125.83956	1285.1889	1287.6004	265.30333	1365.87799	1217.84561	164.69782	1363.27866	1201.14815	249.01888	1196.85204	1126.75064	189.5627	1232.28859	1337.58423	174.33628	1149.92203	1394.3457	337.17342	1368.90076	1294.32556	431.97208	1140.97244	1297.32178	463.01437	1071.89323	1331.46713	466.95152	995.28473	1360.51224	467.78179	950.69992	1530.88669	531.79642	942.3484	1503.84216	553.31249	963.27316	1557.13181	73.73855	1358.0127	1234.61586	79.27576	1250.14114	1068.43826	7.37382	1161.36177	998.87794	-1.39688	1087.26822	939.67873	14.7601	929.44168	931.17729	-49.48804	945.38635	895.23109	-48.53306	889.75868	895.73456	337.27562	882.52808	1341.93268	68.79964	889.36165	1334.79187	290.07946	927.52747	1172.81822	120.83391	952.88414	1157.42798	336.25298	622.6709	1135.62981	336.78238	464.15936	1138.43811	284.3306	282.47993	1052.79793	306.38506	197.57942	907.70111	249.49713	194.37262	836.71562	254.93307	51.35406	948.78181	77.4563	587.40479	1277.30064	100.5107	474.2762	1440.98953	115.00772	309.93217	1480.13412	118.81566	108.11738	1489.22699	169.39449	46.84202	1445.28549	135.5793	70.12381	1624.75708
123	4.077	277.21844	1427.6799	1519.23431	111.28197	1381.27823	1522.13821	282.06457	1507.65594	1421.44943	69.54122	1443.72726	1452.18796	259.31278	1315.1535	1373.56079	123.50131	1302.49817	1343.82477	256.34541	1383.94638	1272.43446	161.5749	1379.16214	1258.20206	241.03603	1216.69548	1176.47339	185.99051	1247.31392	1387.97073	173.22489	1165.04227	1447.96143	330.70862	1386.28754	1344.17953	422.2187	1157.29797	1338.05847	449.51061	1085.37338	1364.74716	450.80925	1004.79469	1377.72461	464.76665	922.95044	1533.69949	524.76414	917.30949	1497.89047	551.08379	917.40463	1554.50531	73.11485	1376.25061	1288.82919	70.68254	1267.16049	1123.90694	-3.16774	1176.48888	1058.83934	-12.94687	1093.94257	1007.06955	11.4255	936.70692	1014.50592	-56.61172	946.07925	982.27005	-52.19176	890.61333	988.58185	332.81429	897.83485	1387.0816	67.06711	908.23807	1385.53055	286.36206	941.59431	1221.13983	118.44573	970.04166	1207.94861	332.22633	618.43739	1204.28207	342.7607	462.68169	1224.34288	298.89061	288.7295	1124.29405	313.30505	231.99448	963.84087	252.50782	239.63299	902.98607	260.76283	63.16329	960.61287	69.09351	601.48289	1317.01187	94.05107	478.72036	1468.37463	107.81085	309.22228	1497.46292	115.20056	107.74993	1494.93195	165.30605	49.64843	1447.93304	136.51533	61.70577	1630.84717
124	4.11	277.33881	1429.30267	1576.37863	111.37386	1383.34152	1581.25031	280.63421	1511.59088	1480.49744	68.33251	1447.71393	1513.2663	256.63589	1323.99719	1426.90628	122.11657	1312.36832	1404.65347	249.59904	1395.63934	1329.03107	156.7085	1390.76477	1316.80023	231.01288	1231.47049	1226.86325	183.55927	1256.86752	1440.78049	175.06975	1172.27844	1503.00934	325.78377	1395.84854	1397.14874	414.13383	1167.52052	1377.22687	440.93662	1093.54996	1396.67572	439.66434	1013.35281	1393.79654	460.3791	896.02768	1523.58032	519.71191	899.40834	1484.62967	544.17274	875.07004	1541.47827	70.73282	1387.03156	1351.24237	55.82322	1280.22461	1186.14952	-21.28705	1187.89017	1126.72806	-31.20667	1098.31993	1082.42538	2.69658	943.08838	1101.52321	-69.10574	946.40106	1076.61949	-60.74401	891.97464	1090.49194	331.22654	905.11681	1425.99274	64.86902	916.90056	1432.00714	280.80027	948.17825	1261.37291	114.0737	981.1676	1254.61708	332.90321	606.39977	1274.51134	347.07294	455.61668	1319.20197	300.26577	294.45866	1213.39539	317.54421	256.37869	1050.02953	254.66175	275.26016	989.53041	275.20679	91.37503	1018.0069	63.85329	610.72529	1344.99115	90.51604	478.65871	1488.19855	106.92618	309.75788	1510.65887	114.75744	107.9957	1498.97797	164.28335	51.28892	1448.95706	138.67018	56.90852	1632.34055
125	4.143	278.98254	1432.6712	1630.91385	113.00112	1387.06024	1638.88641	280.92796	1514.88129	1534.86389	69.52589	1451.04736	1571.55624	257.56081	1327.10129	1478.38242	120.59976	1317.74902	1462.0961	246.469	1401.29196	1383.64609	152.91619	1398.02536	1372.34726	221.77073	1241.02592	1276.21902	183.84315	1260.85693	1495.77957	179.52122	1172.21809	1554.37897	326.69769	1397.2348	1449.65027	410.36888	1168.51486	1414.84863	436.68316	1094.75716	1428.70361	434.0749	1019.15428	1410.33463	453.77186	873.07396	1505.08759	515.28019	887.46208	1470.8252	533.44387	842.7404	1520.42099	69.10266	1392.79327	1413.47672	30.01236	1284.77707	1250.08308	-47.11001	1185.62744	1205.73875	-59.20998	1095.0753	1164.09546	-13.98919	942.50191	1182.6725	-88.55947	941.10199	1167.6236	-77.03145	890.63438	1186.27663	329.49715	908.16231	1467.29691	62.12828	917.79167	1474.37759	273.77638	946.93985	1300.08789	108.15633	986.89568	1298.00232	334.76746	603.73585	1350.48599	349.92954	459.5417	1420.21759	299.25625	304.33542	1312.6619	319.36663	275.70099	1146.81	257.6433	294.30107	1085.46791	283.32605	112.67283	1118.35953	65.60178	616.45813	1370.17593	89.0312	475.52921	1505.11871	106.26584	307.59699	1519.6109	117.08745	107.27637	1501.26297	166.56898	52.89387	1450.30487	144.93649	52.16676	1635.66101
126	4.177	282.11924	1432.98737	1682.84607	115.93716	1388.34686	1692.84073	283.33757	1515.5957	1587.09503	72.14568	1452.7449	1626.20285	259.28402	1327.23206	1527.00836	123.35752	1320.22842	1516.53442	247.41161	1403.58826	1434.21692	149.24368	1403.33969	1424.9234	214.29785	1247.31949	1323.46054	186.04797	1260.71808	1551.16669	183.11005	1167.72705	1602.13837	331.13785	1394.09393	1498.40622	406.79356	1165.93155	1447.19604	432.3225	1092.56638	1454.32693	426.61381	1022.39891	1424.23355	446.40762	861.00349	1488.19275	507.74197	881.48773	1455.91965	523.50945	822.77321	1494.46091	64.98132	1395.65994	1470.91873	8.24214	1280.79132	1315.19547	-69.1479	1176.72462	1287.33246	-88.05723	1086.62895	1249.67751	-40.59099	935.84656	1263.83369	-116.21981	933.1572	1259.75937	-101.99463	884.67361	1278.63731	324.24778	914.53247	1512.72217	56.71257	919.31122	1513.39722	265.78489	954.1198	1342.33917	104.55281	991.94099	1338.45398	335.52959	607.9924	1428.3374	346.23856	473.55824	1515.54932	297.07468	312.06793	1415.61646	321.81034	276.1375	1253.26042	261.46881	293.31703	1187.46231	287.37576	116.52105	1235.7003	67.6439	621.51287	1397.0961	88.4333	475.06027	1526.72775	107.85492	306.45359	1533.84659	119.87806	107.1409	1505.37735	169.13151	54.91079	1452.42615	149.18132	48.09197	1638.26996
127	4.21	286.82959	1429.99161	1731.60233	120.47029	1386.41586	1743.14697	287.40116	1514.85855	1637.4057	76.35194	1452.65167	1678.56827	263.30856	1325.44357	1572.4585	126.29301	1320.75714	1567.01294	248.21478	1405.04044	1481.41464	146.74782	1407.47238	1474.91241	206.54547	1252.50443	1367.7446	188.77628	1260.42557	1600.00244	185.27153	1163.17848	1644.02344	335.8416	1390.10406	1540.87738	401.02142	1165.45387	1467.87506	426.42296	1090.79956	1467.82745	416.11073	1023.64037	1433.93585	440.20943	857.95311	1480.19531	497.35962	880.79704	1441.79428	515.62847	815.40619	1470.05249	64.92725	1398.43567	1525.99503	-9.28517	1275.29617	1377.42905	-85.81017	1170.15579	1363.70758	-112.16619	1080.44113	1333.33908	-71.64931	927.96768	1349.60876	-147.17761	929.81339	1353.01636	-133.53287	880.2578	1370.1944	314.35135	923.38799	1564.20074	48.62673	922.00974	1552.03125	266.57436	962.9081	1387.30576	106.60105	995.65208	1379.90509	335.49355	615.58918	1503.10089	338.91121	489.18495	1602.96707	291.70181	319.36329	1517.4791	322.96471	265.68073	1360.9169	267.04355	274.83746	1289.90631	286.59245	109.01577	1366.17844	69.82438	626.04805	1428.51105	87.26088	473.66978	1551.54999	108.95585	304.66267	1550.32623	120.99267	107.18787	1510.32364	170.25326	56.66601	1454.25461	149.45729	46.6995	1639.03473
